<?xml version="1.0" encoding="UTF-8"?><svg id="Layer_2" xmlns="http://www.w3.org/2000/svg" viewBox="0 0 66.57 66.57"><g id="Layer_1-2"><path d="m5.71,66.07c-1.2,0-2.33-.47-3.18-1.32l-.71-.71c-1.75-1.75-1.75-4.61,0-6.36L57.68,1.82c.85-.85,1.98-1.32,3.18-1.32s2.33.47,3.18,1.32l.71.71c.85.85,1.32,1.98,1.32,3.18s-.47,2.33-1.32,3.18L8.89,64.75c-.85.85-1.98,1.32-3.18,1.32Z"/><path d="m60.86,1c1.07,0,2.07.42,2.83,1.17l.71.71c1.56,1.56,1.56,4.1,0,5.66L8.54,64.4c-.76.76-1.76,1.17-2.83,1.17s-2.07-.42-2.83-1.17l-.71-.71c-1.56-1.56-1.56-4.1,0-5.66L58.03,2.17c.76-.76,1.76-1.17,2.83-1.17M60.86,0C59.58,0,58.3.49,57.33,1.46L1.46,57.33c-1.95,1.95-1.95,5.12,0,7.07l.71.71c.98.98,2.26,1.46,3.54,1.46s2.56-.49,3.54-1.46L65.1,9.24c1.95-1.95,1.95-5.12,0-7.07l-.71-.71C63.42.49,62.14,0,60.86,0h0Z"/><path d="m60.86,66.07c-1.2,0-2.33-.47-3.18-1.32L1.82,8.89c-.85-.85-1.32-1.98-1.32-3.18s.47-2.33,1.32-3.18l.71-.71c.85-.85,1.98-1.32,3.18-1.32s2.33.47,3.18,1.32l55.86,55.86c1.75,1.75,1.75,4.61,0,6.36l-.71.71c-.85.85-1.98,1.32-3.18,1.32Z"/><path d="m5.71,1c1.07,0,2.07.42,2.83,1.17l55.86,55.86c.76.76,1.17,1.76,1.17,2.83s-.42,2.07-1.17,2.83l-.71.71c-.76.76-1.76,1.17-2.83,1.17s-2.07-.42-2.83-1.17L2.17,8.54c-1.56-1.56-1.56-4.1,0-5.66l.71-.71c.76-.76,1.76-1.17,2.83-1.17m0-1c-1.28,0-2.56.49-3.54,1.46l-.71.71c-1.95,1.95-1.95,5.12,0,7.07l55.86,55.86c.98.98,2.26,1.46,3.54,1.46s2.56-.49,3.54-1.46l.71-.71c1.95-1.95,1.95-5.12,0-7.07L9.24,1.46c-.98-.98-2.26-1.46-3.54-1.46h0Z"/></g></svg>