<?xml version="1.0" encoding="UTF-8"?><svg id="Layer_2" xmlns="http://www.w3.org/2000/svg" viewBox="0 0 33.88 36.3"><defs><style>.cls-1{fill:#fff;}.cls-1,.cls-2,.cls-3{stroke:#1d1d1b;stroke-miterlimit:10;}.cls-1,.cls-3{stroke-width:2px;}.cls-2{stroke-width:.5px;}.cls-2,.cls-4{fill:#1d1d1b;}.cls-3{fill:#ffed00;}</style></defs><g id="Layer_1-2"><path class="cls-1" d="m17.01,13.31l7.17-5.19c1.82-1.32,1.7-4.07-.22-5.23l-1.23-.74c-1.82-1.1-4.17.03-4.46,2.13l-1.26,9.03Z"/><path class="cls-1" d="m15.53,13.57l.73-8.46c.23-2.71-2.38-4.77-4.96-3.92h0c-2.44.8-3.27,3.83-1.57,5.76l5.81,6.62Z"/><ellipse class="cls-3" cx="15.27" cy="24.2" rx="14.27" ry="11.1"/><rect class="cls-4" x="4.92" y="15.7" width="2.4" height="17.01"/><rect class="cls-4" x="10.89" y="13.57" width="2.4" height="21.26"/><rect class="cls-4" x="16.84" y="13.57" width="2.4" height="21.26"/><polygon class="cls-2" points="27.29 17.11 26.64 17.21 32.49 11.63 33.14 11.54 27.29 17.11"/><polygon class="cls-2" points="26.41 16.25 25.81 16.53 29.72 9.46 30.32 9.17 26.41 16.25"/><ellipse class="cls-4" cx="23.46" cy="20.38" rx="1.02" ry="1.52"/></g></svg>