<?xml version="1.0" encoding="UTF-8"?><svg id="Layer_2" xmlns="http://www.w3.org/2000/svg" viewBox="0 0 101.46 101.46"><defs><style>.cls-1{fill:#fff;}.cls-2{fill:#3d5a98;}</style></defs><g id="Layer_4"><path class="cls-2" d="m88.78,101.46H12.68c-7.01,0-12.68-5.68-12.68-12.68V12.68C0,5.68,5.68,0,12.68,0h76.1c7,0,12.68,5.68,12.68,12.68v76.1c0,7-5.68,12.68-12.68,12.68"/><path class="cls-1" d="m70.01,101.46v-39.29h13.19l1.97-15.31h-15.16v-9.78c0-4.43,1.23-7.46,7.59-7.46h8.11v-13.7c-1.4-.19-6.21-.61-11.81-.61-11.69,0-19.7,7.14-19.7,20.24v11.29h-13.22v15.31h13.22v39.29h15.81Z"/></g></svg>