<?xml version="1.0" encoding="UTF-8"?><svg id="Layer_2" xmlns="http://www.w3.org/2000/svg" xmlns:xlink="http://www.w3.org/1999/xlink" viewBox="0 0 101.46 101.46"><defs><style>.cls-1{fill:#fff;}.cls-2{fill:url(#linear-gradient);}</style><linearGradient id="linear-gradient" x1="18.4" y1="106.73" x2="83.06" y2="-5.27" gradientUnits="userSpaceOnUse"><stop offset="0" stop-color="#ffd676"/><stop offset=".25" stop-color="#f2a454"/><stop offset=".38" stop-color="#f05c3c"/><stop offset=".7" stop-color="#c22f86"/><stop offset=".96" stop-color="#6665ad"/><stop offset=".99" stop-color="#5c6cb2"/><stop offset="1" stop-color="#5c6cb2"/></linearGradient></defs><g id="Layer_4"><path class="cls-2" d="m88.78,101.46H12.68c-7.01,0-12.68-5.68-12.68-12.68V12.68C0,5.68,5.68,0,12.68,0h76.1c7.01,0,12.68,5.68,12.68,12.68v76.1c0,7-5.68,12.68-12.68,12.68"/><path class="cls-1" d="m50.73,19.99c10.01,0,11.2.04,15.15.22,3.65.17,5.64.78,6.96,1.29,1.75.68,3,1.49,4.31,2.81,1.31,1.31,2.12,2.56,2.8,4.31.52,1.32,1.12,3.31,1.29,6.96.18,3.95.22,5.14.22,15.15s-.04,11.2-.22,15.15c-.17,3.66-.78,5.64-1.29,6.96-.68,1.75-1.49,3-2.8,4.31-1.31,1.31-2.56,2.12-4.31,2.8-1.32.51-3.31,1.12-6.96,1.29-3.95.18-5.14.22-15.15.22s-11.2-.04-15.15-.22c-3.65-.17-5.64-.78-6.96-1.29-1.75-.68-3-1.49-4.31-2.8s-2.12-2.56-2.8-4.31c-.51-1.32-1.12-3.31-1.29-6.96-.18-3.95-.22-5.14-.22-15.15s.04-11.2.22-15.15c.17-3.65.78-5.64,1.29-6.96.68-1.75,1.49-3,2.8-4.31,1.31-1.31,2.56-2.12,4.31-2.81,1.32-.51,3.31-1.12,6.96-1.29,3.96-.18,5.14-.22,15.15-.22m0-6.76c-10.18,0-11.46.04-15.46.23-3.99.18-6.72.82-9.1,1.74-2.46.96-4.56,2.24-6.64,4.32-2.08,2.09-3.37,4.18-4.32,6.64-.93,2.38-1.56,5.11-1.74,9.1-.18,4-.22,5.28-.22,15.46s.04,11.46.22,15.46c.18,3.99.82,6.72,1.74,9.1.96,2.47,2.24,4.56,4.32,6.64s4.18,3.37,6.64,4.32c2.38.93,5.11,1.56,9.1,1.74,4,.18,5.28.23,15.46.23s11.46-.04,15.46-.23c3.99-.18,6.72-.81,9.1-1.74,2.46-.96,4.56-2.24,6.64-4.32,2.08-2.08,3.37-4.18,4.32-6.64.93-2.38,1.56-5.11,1.74-9.1.18-4,.23-5.28.23-15.46s-.04-11.46-.23-15.46c-.18-3.99-.82-6.72-1.74-9.1-.96-2.47-2.24-4.56-4.32-6.64-2.09-2.08-4.18-3.37-6.64-4.32-2.38-.93-5.11-1.56-9.1-1.74-4-.18-5.28-.23-15.46-.23"/><path class="cls-1" d="m50.73,31.48c-10.63,0-19.25,8.62-19.25,19.25s8.62,19.25,19.25,19.25,19.25-8.62,19.25-19.25-8.62-19.25-19.25-19.25m0,31.75c-6.9,0-12.5-5.6-12.5-12.5s5.6-12.5,12.5-12.5,12.5,5.6,12.5,12.5-5.6,12.5-12.5,12.5"/><path class="cls-1" d="m75.24,30.72c0,2.49-2.01,4.5-4.5,4.5s-4.5-2.01-4.5-4.5,2.02-4.5,4.5-4.5,4.5,2.01,4.5,4.5"/></g></svg>