<?xml version="1.0" encoding="UTF-8"?><svg id="Layer_2" xmlns="http://www.w3.org/2000/svg" viewBox="0 0 101.46 101.46"><defs><style>.cls-1{fill:#fff;}.cls-2{fill:#d92632;}</style></defs><g id="Layer_4"><path class="cls-2" d="m88.78,101.46H12.68c-7.01,0-12.68-5.68-12.68-12.68V12.68C0,5.68,5.68,0,12.68,0h76.1c7,0,12.68,5.68,12.68,12.68v76.09c0,7-5.68,12.68-12.68,12.68"/><path class="cls-1" d="m84.36,37.01s-.67-4.73-2.73-6.81c-2.61-2.73-5.53-2.75-6.88-2.91-9.6-.69-24.01-.69-24.01-.69h-.03s-14.41,0-24.01.69c-1.34.16-4.26.17-6.87,2.91-2.06,2.08-2.73,6.81-2.73,6.81,0,0-.69,5.55-.69,11.11v5.21c0,5.55.69,11.11.69,11.11,0,0,.67,4.73,2.73,6.81,2.61,2.73,6.04,2.65,7.57,2.93,5.49.53,23.33.69,23.33.69,0,0,14.42-.02,24.02-.72,1.34-.16,4.27-.17,6.88-2.91,2.06-2.08,2.73-6.81,2.73-6.81,0,0,.69-5.55.69-11.11v-5.21c0-5.55-.69-11.11-.69-11.11"/><polygon class="cls-2" points="43.64 59.63 62.19 50.03 43.64 40.35 43.64 59.63"/></g></svg>