<svg id="Layer_2" xmlns="http://www.w3.org/2000/svg" viewBox="0 0 33.88 36.3"><defs><style>.cls-1{fill:#fff}.cls-1,.cls-2{stroke:#1d1d1b;stroke-miterlimit:10}.cls-1{stroke-width:2px}.cls-2{stroke-width:.5px}.cls-2,.cls-4{fill:#1d1d1b}</style></defs><g id="Layer_1-2"><path class="cls-1" d="m17.01 13.31 7.17-5.19c1.82-1.32 1.7-4.07-.22-5.23l-1.23-.74c-1.82-1.1-4.17.03-4.46 2.13l-1.26 9.03zM15.53 13.57l.73-8.46c.23-2.71-2.38-4.77-4.96-3.92-2.44.8-3.27 3.83-1.57 5.76l5.81 6.62z"/><ellipse cx="15.27" cy="24.2" rx="14.27" ry="11.1" style="fill:#ffed00;stroke-width:2px;stroke:#1d1d1b;stroke-miterlimit:10"/><path class="cls-4" d="M4.92 15.7h2.4v17.01h-2.4zM10.89 13.57h2.4v21.26h-2.4zM16.84 13.57h2.4v21.26h-2.4z"/><path class="cls-2" d="m27.29 17.11-.65.1 5.85-5.58.65-.09-5.85 5.57zM26.41 16.25l-.6.28 3.91-7.07.6-.29-3.91 7.08z"/><ellipse class="cls-4" cx="23.46" cy="20.38" rx="1.02" ry="1.52"/></g></svg>