<?xml version="1.0" encoding="UTF-8"?><svg id="Layer_2" xmlns="http://www.w3.org/2000/svg" viewBox="0 0 64.77 60.13"><defs><style>.cls-1{fill:#e30613;}.cls-2{fill:none;stroke:#010101;stroke-linecap:round;stroke-linejoin:round;stroke-width:4px;}</style></defs><g id="Layer_1-2"><path class="cls-1" d="m62.73,18.88c-.5-7.94-6.59-14.71-14.45-15.98-6.15-.99-11.85,1.3-15.61,5.41-3.55-4.3-9.12-6.88-15.31-6.2-7.91.86-14.34,7.31-15.25,15.22-.52,4.52.74,8.75,3.16,12.1h0c.57.8,1.21,1.54,1.91,2.23l21.6,25.22c1.37,1.6,3.83,1.66,5.28.14l22.87-24.08c.73-.65,1.41-1.36,2.02-2.13h0s0,0,0,0c2.58-3.22,4.06-7.38,3.77-11.93Z"/><path class="cls-2" d="m62.73,18.88c-.5-7.94-6.59-14.71-14.45-15.98-6.15-.99-11.85,1.3-15.61,5.41-3.55-4.3-9.12-6.88-15.31-6.2-7.91.86-14.34,7.31-15.25,15.22-.52,4.52.74,8.75,3.16,12.1h0c.57.8,1.21,1.54,1.91,2.23l21.6,25.22c1.37,1.6,3.83,1.66,5.28.14l22.87-24.08c.73-.65,1.41-1.36,2.02-2.13h0s0,0,0,0c2.58-3.22,4.06-7.38,3.77-11.93Z"/></g></svg>