<?xml version="1.0" encoding="UTF-8"?><svg id="Layer_2" xmlns="http://www.w3.org/2000/svg" viewBox="0 0 76.52 68.83"><defs><style>.cls-1{fill:#c17e45;stroke-width:4px;}.cls-1,.cls-2,.cls-3,.cls-4,.cls-5,.cls-6{stroke:#1d1d1b;stroke-miterlimit:10;}.cls-2{fill:#00983a;}.cls-2,.cls-3,.cls-4,.cls-5,.cls-6{stroke-width:2px;}.cls-3{fill:#ffd300;}.cls-4{fill:#e84b94;}.cls-5{fill:#e84c16;}.cls-6{fill:#d01317;}</style></defs><g id="Layer_1-2"><path class="cls-1" d="m65.76,8.7c-13.73-12.24-25.72-5.44-25.72,2.38,0,8.41-10.59,11.84-15.55,5.45-5.28-6.8-18.62-4.06-22.07,13.45-3.55,17.96,15.91,43.02,45.85,35.46.53-.14,1.73-.55,2.21-.76,28.54-12,28.96-43.79,15.28-55.99Zm-28.84,23.19c-2.28,0-4.13-1.85-4.13-4.13s1.85-4.13,4.13-4.13,4.13,1.85,4.13,4.13-1.85,4.13-4.13,4.13Z"/><circle class="cls-3" cx="55.46" cy="18.74" r="6.76"/><circle class="cls-2" cx="16.74" cy="30.65" r="6.76" transform="translate(-6.53 4.61) rotate(-13.15)"/><circle class="cls-6" cx="23.49" cy="49.01" r="6.76" transform="translate(-28.53 33.29) rotate(-47.57)"/><circle class="cls-4" cx="45.55" cy="53.77" r="6.76" transform="translate(-11.14 11.9) rotate(-13.28)"/><circle class="cls-5" cx="59.06" cy="38.81" r="6.76" transform="translate(-7.34 14.61) rotate(-13.28)"/></g></svg>