<?xml version="1.0" encoding="UTF-8"?><svg id="Layer_2" xmlns="http://www.w3.org/2000/svg" viewBox="0 0 80.31 63.92"><defs><style>.cls-1{fill:none;stroke:#1d1d1b;stroke-miterlimit:10;stroke-width:2px;}.cls-2{fill:#1d1d1b;}</style></defs><g id="Layer_1-2"><path class="cls-2" d="m49.02,44.19c.33-.37.5-.85.47-1.35-.03-.5-.25-.95-.62-1.29l-6.04-5.4c-1.12-1-2.81-1-3.93,0l-6.04,5.4c-.77.69-.84,1.87-.15,2.64.33.37.79.59,1.29.62.51.04.98-.14,1.35-.47l3.65-3.26v19.98c0,1.03.84,1.87,1.87,1.87s1.87-.84,1.87-1.87v-19.98l3.65,3.26c.34.31.78.47,1.24.47.53,0,1.04-.23,1.39-.62Zm14.15-21.7c-.27-11.87-10.09-21.49-21.99-21.49-5.35,0-10.51,1.95-14.51,5.48-3.5,3.09-5.97,7.28-6.96,11.83h-.04C9.38,18.31,1,26.69,1,36.98s8.38,18.67,18.67,18.67h12.89c1.03,0,1.87-.84,1.87-1.87s-.84-1.87-1.87-1.87h-12.89c-8.24,0-14.93-6.7-14.93-14.93s6.7-14.93,14.93-14.93c.44,0,.91.02,1.42.07,1.01.1,1.89-.61,2.03-1.61.59-4.34,2.73-8.32,6.03-11.23,3.33-2.93,7.6-4.55,12.04-4.55,10.07,0,18.26,8.19,18.26,18.26,0,.35-.02.72-.05,1.13v.17c-.05.55.15,1.09.55,1.47.4.38.94.57,1.49.52.44-.04.87-.07,1.3-.07,7.08,0,12.85,5.76,12.85,12.85s-5.76,12.85-12.85,12.85h-13.56c-1.03,0-1.87.84-1.87,1.87s.84,1.87,1.87,1.87h13.56c9.14,0,16.58-7.44,16.58-16.58s-7.22-16.34-16.14-16.57Zm-21.99-9.95c1.03,0,1.87-.84,1.87-1.87s-.84-1.87-1.87-1.87c-7.05,0-13.08,5.27-14.04,12.25-.07.49.06.99.36,1.38.3.4.74.65,1.24.72.08.01.17.02.25.02.93,0,1.72-.69,1.85-1.61.7-5.14,5.15-9.02,10.34-9.02Z"/><path class="cls-1" d="m49.02,44.19c.33-.37.5-.85.47-1.35-.03-.5-.25-.95-.62-1.29l-6.04-5.4c-1.12-1-2.81-1-3.93,0l-6.04,5.4c-.77.69-.84,1.87-.15,2.64.33.37.79.59,1.29.62.51.04.98-.14,1.35-.47l3.65-3.26v19.98c0,1.03.84,1.87,1.87,1.87s1.87-.84,1.87-1.87v-19.98l3.65,3.26c.34.31.78.47,1.24.47.53,0,1.04-.23,1.39-.62Zm14.15-21.7c-.27-11.87-10.09-21.49-21.99-21.49-5.35,0-10.51,1.95-14.51,5.48-3.5,3.09-5.97,7.28-6.96,11.83h-.04C9.38,18.31,1,26.69,1,36.98s8.38,18.67,18.67,18.67h12.89c1.03,0,1.87-.84,1.87-1.87s-.84-1.87-1.87-1.87h-12.89c-8.24,0-14.93-6.7-14.93-14.93s6.7-14.93,14.93-14.93c.44,0,.91.02,1.42.07,1.01.1,1.89-.61,2.03-1.61.59-4.34,2.73-8.32,6.03-11.23,3.33-2.93,7.6-4.55,12.04-4.55,10.07,0,18.26,8.19,18.26,18.26,0,.35-.02.72-.05,1.13v.17c-.05.55.15,1.09.55,1.47.4.38.94.57,1.49.52.44-.04.87-.07,1.3-.07,7.08,0,12.85,5.76,12.85,12.85s-5.76,12.85-12.85,12.85h-13.56c-1.03,0-1.87.84-1.87,1.87s.84,1.87,1.87,1.87h13.56c9.14,0,16.58-7.44,16.58-16.58s-7.22-16.34-16.14-16.57Zm-21.99-9.95c1.03,0,1.87-.84,1.87-1.87s-.84-1.87-1.87-1.87c-7.05,0-13.08,5.27-14.04,12.25-.07.49.06.99.36,1.38.3.4.74.65,1.24.72.08.01.17.02.25.02.93,0,1.72-.69,1.85-1.61.7-5.14,5.15-9.02,10.34-9.02Z"/></g></svg>